<?xml version="1.0" encoding="UTF-8"?>
<svg version="1.1" xmlns="http://www.w3.org/2000/svg" width="40" height="40">
<path d="M0 0 C7.36218333 -0.90803229 15.64325015 -1.18967604 22 3 C25.06666787 6.16559264 25.25307946 9.19006444 25.4375 13.4375 C25.29800279 18.36640157 24.43075966 21.2833437 21 25 C17.59304018 27.22821256 14.76219739 27.21222168 10.75 27.125 C9.67234375 27.10695313 8.5946875 27.08890625 7.484375 27.0703125 C6.66453125 27.04710938 5.8446875 27.02390625 5 27 C5.061875 28.093125 5.12375 29.18625 5.1875 30.3125 C5 34 5 34 4 35.9375 C0.76673698 37.65517098 -2.42658505 37.54345686 -6 37 C-8 35.8125 -8 35.8125 -9 34 C-9.4375 31.5 -9.4375 31.5 -9 29 C-7.25 27.1875 -7.25 27.1875 -5 26 C-3.68 26 -2.36 26 -1 26 C-1.33 21.38 -1.66 16.76 -2 12 C-3.32 13.32 -4.64 14.64 -6 16 C-6.99 16 -7.98 16 -9 16 C-9.4375 13.4375 -9.4375 13.4375 -9 10 C-7.3871542 7.99346743 -5.64349905 6.32905779 -3.7265625 4.61328125 C-1.77937974 2.91741702 -1.77937974 2.91741702 0 0 Z M8 7 C8 11.29 8 15.58 8 20 C12.86120725 20.51586428 12.86120725 20.51586428 17 18.375 C18.36831008 15.12526355 18.0645504 13.33559124 17 10 C15.34626504 8.00966359 15.34626504 8.00966359 13 7 C11.35 7 9.7 7 8 7 Z " fill="#EB1D0A" transform="translate(12,1)"/>
</svg>
